<?xml version="1.0" encoding="UTF-8" standalone="no"?>
<svg
   xmlns:dc="http://purl.org/dc/elements/1.1/"
   xmlns:cc="http://creativecommons.org/ns#"
   xmlns:rdf="http://www.w3.org/1999/02/22-rdf-syntax-ns#"
   xmlns:svg="http://www.w3.org/2000/svg"
   xmlns="http://www.w3.org/2000/svg"
   xmlns:sodipodi="http://sodipodi.sourceforge.net/DTD/sodipodi-0.dtd"
   xmlns:inkscape="http://www.inkscape.org/namespaces/inkscape"
   width="240mm"
   height="120mm"
   viewBox="0 0 240 120"
   version="1.1"
   id="svg8"
   inkscape:version="1.0.2 (1.0.2+r75+1)"
   sodipodi:docname="lecture5d1.svg">
  <defs
     id="defs2">
    <marker
       id="marker-arrow-1.0616"
       orient="auto-start-reverse"
       refY="0"
       refX="0"
       markerHeight="1.690"
       markerWidth="0.911">
      <g
         transform="scale(1.343431298668676)"
         id="g50">
        <path
           d="M -1.55415,2.0722 C -1.42464,1.29512 0,0.1295 0.38852,0 0,-0.1295 -1.42464,-1.29512 -1.55415,-2.0722"
           style="fill:none;stroke:#000000;stroke-width:0.6;stroke-linecap:round;stroke-linejoin:round;stroke-miterlimit:10;stroke-dasharray:none;stroke-opacity:1"
           inkscape:connector-curvature="0"
           id="path48" />
      </g>
    </marker>
    <marker
       id="marker-arrow-1.5923999999999998"
       orient="auto-start-reverse"
       refY="0"
       refX="0"
       markerHeight="1.690"
       markerWidth="0.911">
      <g
         transform="scale(1.0733986435568954)"
         id="g245">
        <path
           d="M -1.55415,2.0722 C -1.42464,1.29512 0,0.1295 0.38852,0 0,-0.1295 -1.42464,-1.29512 -1.55415,-2.0722"
           style="fill:none;stroke:#000000;stroke-width:0.6;stroke-linecap:round;stroke-linejoin:round;stroke-miterlimit:10;stroke-dasharray:none;stroke-opacity:1"
           inkscape:connector-curvature="0"
           id="path243" />
      </g>
    </marker>
    <marker
       id="marker-arrow-1.5923999999999998-6"
       orient="auto-start-reverse"
       refY="0"
       refX="0"
       markerHeight="1.690"
       markerWidth="0.911">
      <g
         transform="scale(1.0733986435568954)"
         id="g278">
        <path
           d="M -1.55415,2.0722 C -1.42464,1.29512 0,0.1295 0.38852,0 0,-0.1295 -1.42464,-1.29512 -1.55415,-2.0722"
           style="fill:none;stroke:#000000;stroke-width:0.6;stroke-linecap:round;stroke-linejoin:round;stroke-miterlimit:10;stroke-dasharray:none;stroke-opacity:1"
           inkscape:connector-curvature="0"
           id="path276" />
      </g>
    </marker>
    <marker
       id="marker-arrow-1.5923999999999998-2"
       orient="auto-start-reverse"
       refY="0"
       refX="0"
       markerHeight="1.690"
       markerWidth="0.911">
      <g
         transform="scale(1.0733986435568954)"
         id="g581">
        <path
           d="M -1.55415,2.0722 C -1.42464,1.29512 0,0.1295 0.38852,0 0,-0.1295 -1.42464,-1.29512 -1.55415,-2.0722"
           style="fill:none;stroke:#000000;stroke-width:0.6;stroke-linecap:round;stroke-linejoin:round;stroke-miterlimit:10;stroke-dasharray:none;stroke-opacity:1"
           inkscape:connector-curvature="0"
           id="path579" />
      </g>
    </marker>
    <marker
       id="marker-arrow-1.5923999999999998-3"
       orient="auto-start-reverse"
       refY="0"
       refX="0"
       markerHeight="1.690"
       markerWidth="0.911">
      <g
         transform="scale(1.0733986435568954)"
         id="g931">
        <path
           d="M -1.55415,2.0722 C -1.42464,1.29512 0,0.1295 0.38852,0 0,-0.1295 -1.42464,-1.29512 -1.55415,-2.0722"
           style="fill:none;stroke:#000000;stroke-width:0.6;stroke-linecap:round;stroke-linejoin:round;stroke-miterlimit:10;stroke-dasharray:none;stroke-opacity:1"
           inkscape:connector-curvature="0"
           id="path929" />
      </g>
    </marker>
    <marker
       id="marker-arrow-1.5923999999999998-67"
       orient="auto-start-reverse"
       refY="0"
       refX="0"
       markerHeight="1.690"
       markerWidth="0.911">
      <g
         transform="scale(1.0733986435568954)"
         id="g991">
        <path
           d="M -1.55415,2.0722 C -1.42464,1.29512 0,0.1295 0.38852,0 0,-0.1295 -1.42464,-1.29512 -1.55415,-2.0722"
           style="fill:none;stroke:#000000;stroke-width:0.6;stroke-linecap:round;stroke-linejoin:round;stroke-miterlimit:10;stroke-dasharray:none;stroke-opacity:1"
           inkscape:connector-curvature="0"
           id="path989" />
      </g>
    </marker>
    <marker
       id="marker-arrow-1.5923999999999998-5"
       orient="auto-start-reverse"
       refY="0"
       refX="0"
       markerHeight="1.690"
       markerWidth="0.911">
      <g
         transform="scale(1.0733986435568954)"
         id="g1060">
        <path
           d="M -1.55415,2.0722 C -1.42464,1.29512 0,0.1295 0.38852,0 0,-0.1295 -1.42464,-1.29512 -1.55415,-2.0722"
           style="fill:none;stroke:#000000;stroke-width:0.6;stroke-linecap:round;stroke-linejoin:round;stroke-miterlimit:10;stroke-dasharray:none;stroke-opacity:1"
           inkscape:connector-curvature="0"
           id="path1058" />
      </g>
    </marker>
  </defs>
  <sodipodi:namedview
     id="base"
     pagecolor="#ffffff"
     bordercolor="#666666"
     borderopacity="1.0"
     inkscape:pageopacity="0.0"
     inkscape:pageshadow="2"
     inkscape:zoom="2.0000001"
     inkscape:cx="882.17608"
     inkscape:cy="254.67671"
     inkscape:document-units="mm"
     inkscape:current-layer="layer1"
     showgrid="false"
     showborder="true"
     width="200mm"
     showguides="true"
     inkscape:guide-bbox="true"
     inkscape:window-width="1499"
     inkscape:window-height="1020"
     inkscape:window-x="2129"
     inkscape:window-y="28"
     inkscape:window-maximized="1"
     inkscape:document-rotation="0"
     inkscape:snap-global="true">
    <inkscape:grid
       type="xygrid"
       id="grid815"
       units="mm"
       spacingx="10"
       spacingy="10"
       empspacing="4"
       dotted="false" />
  </sodipodi:namedview>
  <metadata
     id="metadata5">
    <rdf:RDF>
      <cc:Work
         rdf:about="">
        <dc:format>image/svg+xml</dc:format>
        <dc:type
           rdf:resource="http://purl.org/dc/dcmitype/StillImage" />
        <dc:title />
      </cc:Work>
    </rdf:RDF>
  </metadata>
  <g
     inkscape:label="Layer 1"
     inkscape:groupmode="layer"
     id="layer1"
     transform="translate(0,-177)">
    <path
       style="fill:none;stroke:#000000;stroke-width:0.343618px;stroke-linecap:butt;stroke-linejoin:miter;stroke-opacity:1"
       d="m 12.652069,279.75859 c 0,0 99.032751,-157.7627 210.890981,0"
       id="path8" />
    <path
       style="fill:none;stroke:#000000;stroke-width:0.343618px;stroke-linecap:butt;stroke-linejoin:miter;stroke-opacity:1"
       d="m 12.652069,279.75859 c 0,0 -5.3981758,0.12221 -9.4445278,-6.36757"
       id="path12" />
    <path
       style="fill:none;stroke:#000000;stroke-width:0.343618px;stroke-linecap:butt;stroke-linejoin:miter;stroke-opacity:1"
       d="m 223.54305,279.75859 c 0,0 6.31824,0.31331 8.76705,-5.53465"
       id="path14" />
    <path
       style="fill:none;stroke:#000000;stroke-width:0.343618px;stroke-linecap:butt;stroke-linejoin:miter;stroke-opacity:1"
       d="m 3.2075412,273.39102 c 0,0 108.0169688,-167.256 229.1025588,0.83292"
       id="path16" />
    <path
       style="fill:none;fill-opacity:1;stroke:#000000;stroke-width:0.364785;stroke-linecap:butt;stroke-linejoin:miter;stroke-dasharray:1.36794, 1.36794;stroke-opacity:1;marker-start:none;marker-end:none"
       d="m 12.652069,279.75859 c 0,0 -2.606223,-6.76352 -9.4445278,-6.36757"
       id="path18" />
    <path
       style="fill:none;fill-opacity:1;stroke:#000000;stroke-width:0.364785;stroke-linecap:butt;stroke-linejoin:miter;stroke-dasharray:1.36794, 1.36794;stroke-opacity:1;marker-start:none;marker-end:none"
       d="m 223.54305,279.75859 c 0,0 1.89065,-6.04737 8.76705,-5.53465"
       id="path36" />
    <path
       style="fill:none;fill-opacity:1;stroke:black;stroke-width:0.4213225;stroke-linecap:butt;stroke-linejoin:miter;stroke-dasharray:none;stroke-opacity:1;marker-start:none;marker-end:url(#marker-arrow-1.5923999999999998)"
       d="M 8.1137992,276.74835 16.498276,265.49802"
       id="path46" />
    <text
       style="font-size:3.43618px;font-family:monospace;-inkscape-font-specification:'monospace, Normal';fill:#000000;fill-opacity:1;stroke:none;stroke-width:0.343618"
       xml:space="preserve"
       id="text65"
       y="264.46881"
       x="18.317547"><tspan
         sodipodi:role="line"
         id="tspan63"
         x="18.317547"
         y="264.46881"
         style="stroke-width:0.343618">$I$</tspan></text>
    <path
       style="fill:none;stroke:#000000;stroke-width:0.343618px;stroke-linecap:butt;stroke-linejoin:miter;stroke-opacity:1"
       d="m 23.499058,248.18287 c 0,0 0.803331,7.10736 8.043075,7.58826"
       id="path77" />
    <path
       style="fill:none;fill-opacity:1;stroke:#000000;stroke-width:0.364785;stroke-linecap:butt;stroke-linejoin:miter;stroke-dasharray:1.36794, 1.36794;stroke-opacity:1;marker-start:none;marker-end:none"
       d="m 23.499058,248.18287 c 0,0 5.566029,-0.0104 8.043075,7.58826"
       id="path79" />
    <path
       style="fill:none;stroke:#000000;stroke-width:0.331772px;stroke-linecap:butt;stroke-linejoin:miter;stroke-opacity:1"
       d="m 41.979467,230.86969 c 0,0 0.02426,2.61491 1.651919,4.91515 1.017455,1.43795 2.661441,2.75294 5.317677,3.22933"
       id="path77-3"
       sodipodi:nodetypes="csc" />
    <path
       style="fill:none;fill-opacity:1;stroke:#000000;stroke-width:0.364785;stroke-linecap:butt;stroke-linejoin:miter;stroke-dasharray:1.36794, 1.36794;stroke-opacity:1;marker-start:none;marker-end:none"
       d="m 41.979467,230.86969 c 0,0 5.346752,0.5874 6.969596,8.14448"
       id="path79-6" />
    <path
       style="fill:none;stroke:#000000;stroke-width:0.304881px;stroke-linecap:butt;stroke-linejoin:miter;stroke-opacity:1"
       d="m 67.324837,213.31984 c 0,0 -0.141598,2.35209 1.221483,4.75934 0.85208,1.50484 2.292136,3.03123 4.72231,4.01805"
       id="path77-3-7"
       sodipodi:nodetypes="csc" />
    <path
       style="fill:none;fill-opacity:1;stroke:#000000;stroke-width:0.364785;stroke-linecap:butt;stroke-linejoin:miter;stroke-dasharray:1.36794, 1.36794;stroke-opacity:1;marker-start:none;marker-end:none"
       d="m 67.324837,213.31984 c 0,0 4.91503,1.65295 5.943793,8.77739"
       id="path79-6-5" />
    <path
       style="fill:none;stroke:#000000;stroke-width:0.343618px;stroke-linecap:butt;stroke-linejoin:miter;stroke-opacity:1"
       d="m 97.991258,201.58658 c 0,0 -0.4374,5.09317 2.572742,9.95925"
       id="path163" />
    <path
       style="fill:none;fill-opacity:1;stroke:#000000;stroke-width:0.364785;stroke-linecap:butt;stroke-linejoin:miter;stroke-dasharray:1.36794, 1.36794;stroke-opacity:1;marker-start:none;marker-end:none"
       d="m 97.991258,201.58658 c 0,0 2.838342,3.07365 2.572742,9.95925"
       id="path175" />
    <path
       style="fill:none;stroke:#000000;stroke-width:0.343618px;stroke-linecap:butt;stroke-linejoin:miter;stroke-opacity:1"
       d="m 131.23867,210.56639 c 0,0 2.5319,-4.09091 1.79271,-10.15141"
       id="path185" />
    <path
       style="fill:none;fill-opacity:1;stroke:#000000;stroke-width:0.364785;stroke-linecap:butt;stroke-linejoin:miter;stroke-dasharray:1.36794, 1.36794;stroke-opacity:1;marker-start:none;marker-end:none"
       d="m 133.03138,200.41498 c 0,0 -2.43782,3.59295 -1.79271,10.15141"
       id="path187" />
    <path
       style="fill:none;stroke:#000000;stroke-width:0.343618px;stroke-linecap:butt;stroke-linejoin:miter;stroke-opacity:1"
       d="m 164.30579,222.2032 c 0,0 4.74264,-2.57128 5.09215,-8.6219"
       id="path197" />
    <path
       style="fill:none;fill-opacity:1;stroke:#000000;stroke-width:0.364785;stroke-linecap:butt;stroke-linejoin:miter;stroke-dasharray:1.36794, 1.36794;stroke-opacity:1;marker-start:none;marker-end:none"
       d="m 164.30579,222.2032 c 0,0 -0.0438,-6.78843 5.09215,-8.6219"
       id="path207" />
    <path
       style="fill:none;fill-opacity:1;stroke:#000000;stroke-width:0.364785;stroke-linecap:butt;stroke-linejoin:miter;stroke-dasharray:1.36794, 1.36794;stroke-opacity:1;marker-start:none;marker-end:none"
       d="m 187.69184,238.8178 c 0,0 1.38865,-6.33077 6.73999,-7.18113"
       id="path217" />
    <path
       style="fill:none;stroke:#000000;stroke-width:0.343618px;stroke-linecap:butt;stroke-linejoin:miter;stroke-opacity:1"
       d="m 187.69184,238.8178 c 0,0 5.55159,-1.34367 6.73999,-7.18113"
       id="path227" />
    <path
       style="fill:none;fill-opacity:1;stroke:#000000;stroke-width:0.364785;stroke-linecap:butt;stroke-linejoin:miter;stroke-dasharray:1.36794, 1.36794;stroke-opacity:1;marker-start:none;marker-end:none"
       d="m 206.26432,257.6098 c 0,0 1.05659,-6.12844 7.56463,-6.5187"
       id="path229" />
    <path
       style="fill:none;fill-opacity:1;stroke:#000000;stroke-width:0.547177;stroke-linecap:butt;stroke-linejoin:miter;stroke-dasharray:none;stroke-opacity:1;marker-start:none;marker-end:url(#marker-arrow-1.5923999999999998)"
       d="m 163.32822,224.47681 7.08816,4.09234"
       id="path241" />
    <text
       style="font-size:3.43618px;font-family:monospace;-inkscape-font-specification:'monospace, Normal';fill:#000000;fill-opacity:1;stroke:none;stroke-width:0.343618"
       xml:space="preserve"
       id="text260"
       y="239.27332"
       x="148.53932"><tspan
         sodipodi:role="line"
         id="tspan258"
         x="148.53932"
         y="239.27332"
         style="stroke-width:0.343618">$\mathrm{d}\vec{\ell}$</tspan></text>
    <circle
       id="path272"
       style="fill:#000000;stroke:none;stroke-width:0.343618"
       cx="173.31789"
       cy="221.39642"
       r="0.51542711" />
    <path
       style="fill:none;fill-opacity:1;stroke:#000000;stroke-width:0.547;stroke-linecap:butt;stroke-linejoin:miter;stroke-dasharray:none;stroke-opacity:1;marker-start:none;marker-end:url(#marker-arrow-1.0616);stroke-miterlimit:4"
       d="M 173.31439,221.46322 202.85961,191.918"
       id="path274" />
    <text
       style="font-size:3.43618px;font-family:monospace;-inkscape-font-specification:'monospace, Normal';fill:#000000;fill-opacity:1;stroke:none;stroke-width:0.343618"
       xml:space="preserve"
       id="text293"
       y="203.25339"
       x="186.56139"><tspan
         sodipodi:role="line"
         id="tspan291"
         x="186.56139"
         y="203.25339"
         style="stroke-width:0.343618">$\vec{r}$</tspan></text>
    <circle
       id="path305"
       style="fill:#000000;stroke:none;stroke-width:0.343618"
       cx="203.47346"
       cy="191.38051"
       r="0.51542711" />
    <text
       style="font-size:3.43618px;font-family:monospace;-inkscape-font-specification:'monospace, Normal';fill:#000000;fill-opacity:1;stroke:none;stroke-width:0.343618"
       xml:space="preserve"
       id="text309"
       y="188.55261"
       x="203.17578"><tspan
         sodipodi:role="line"
         id="tspan307"
         x="203.17578"
         y="188.55261"
         style="stroke-width:0.343618">$\vec{B}$?</tspan></text>
    <path
       style="fill:none;stroke:#000000;stroke-width:0.343618px;stroke-linecap:butt;stroke-linejoin:miter;stroke-opacity:1"
       d="m 206.26432,257.6098 c 0,0 6.12481,-0.90789 7.56463,-6.5187"
       id="path321" />
    <path
       style="fill:#cccccc;fill-opacity:1;stroke:#000000;stroke-width:0.0455981;stroke-linejoin:round;stroke-dasharray:none;stroke-opacity:1;marker-start:none;marker-end:none"
       d="m 11.686842,279.46881 c -1.7229518,-0.30115 -3.4231948,-1.1007 -4.9824608,-2.34302 -0.620499,-0.49437 -1.570092,-1.45009 -2.106804,-2.1204 -0.412092,-0.51467 -1.007235,-1.33677 -1.007235,-1.39135 0,-0.0422 0.741776,-0.0299 1.193619,0.0198 1.288477,0.14155 2.560052,0.60101 3.674885,1.32783 0.326124,0.21262 0.458675,0.32257 0.441821,0.36648 -0.01323,0.0345 -0.227726,0.33291 -0.476637,0.66312 -0.248906,0.3302 -0.452558,0.61906 -0.452558,0.64191 0,0.0463 0.227516,0.2192 0.288422,0.2192 0.02141,0 0.250364,-0.28943 0.508796,-0.64318 0.258431,-0.35374 0.481639,-0.64367 0.496019,-0.64428 0.06271,-0.003 0.7874288,0.67379 1.1126558,1.03854 0.673605,0.75546 1.251804,1.5857 1.736309,2.49318 0.286915,0.53738 0.325517,0.50371 -0.426832,0.37221 z"
       id="path355" />
    <path
       style="fill:#cccccc;fill-opacity:1;stroke:#000000;stroke-width:0.0911962;stroke-linejoin:round;stroke-dasharray:none;stroke-opacity:1;marker-start:none;marker-end:none"
       d="m 30.191254,255.3703 c -2.421247,-0.51156 -4.427296,-2.07808 -5.562332,-4.34362 -0.274238,-0.54739 -0.741596,-1.87289 -0.826655,-2.34453 l -0.05101,-0.28282 0.320719,0.0557 c 0.592786,0.10288 1.842254,0.55469 2.406286,0.87011 1.933731,1.08141 3.586142,3.13975 4.5268,5.63884 0.251762,0.66887 0.30437,0.6426 -0.813811,0.40635 z"
       id="path435" />
    <path
       style="fill:#cccccc;fill-opacity:1;stroke:#000000;stroke-width:0.0911962;stroke-linejoin:round;stroke-dasharray:none;stroke-opacity:1;marker-start:none;marker-end:none"
       d="m 47.52791,238.41095 c -0.457682,-0.15779 -1.114851,-0.45304 -1.460376,-0.65612 -0.754022,-0.44317 -2.12745,-1.79626 -2.54652,-2.50881 -0.6319,-1.07444 -1.118374,-2.46909 -1.261875,-3.61764 l -0.06211,-0.49711 0.246666,0.0583 c 0.518633,0.12264 1.467919,0.57663 2.138036,1.0225 1.783571,1.18675 3.191185,3.30534 3.89642,5.86448 0.20772,0.75377 0.236681,0.74358 -0.950242,0.33438 z"
       id="path439" />
    <path
       style="fill:#cccccc;fill-opacity:1;stroke:#000000;stroke-width:0.0911962;stroke-linejoin:round;stroke-dasharray:none;stroke-opacity:1;marker-start:none;marker-end:none"
       d="m 72.37278,221.46429 c -0.957433,-0.53201 -1.569338,-0.98427 -2.242451,-1.65738 -1.267051,-1.26705 -2.09539,-2.84646 -2.436816,-4.64631 -0.138159,-0.72831 -0.176685,-1.45944 -0.07691,-1.45944 0.03127,0 0.234234,0.1033 0.450999,0.22955 2.248747,1.30976 3.911473,3.6757 4.656578,6.62599 0.13897,0.55026 0.241849,1.04908 0.228623,1.1085 -0.01611,0.0725 -0.207157,0.006 -0.580023,-0.20091 z"
       id="path441" />
    <path
       style="fill:#cccccc;fill-opacity:1;stroke:#000000;stroke-width:0.2654;stroke-linejoin:round;stroke-dasharray:none;stroke-opacity:1;marker-start:none;marker-end:none"
       d=""
       id="path443"
       transform="matrix(0.26458333,0,0,0.26458333,0,177)" />
    <path
       style="fill:#cccccc;fill-opacity:1;stroke:#000000;stroke-width:0.0911962;stroke-linejoin:round;stroke-dasharray:none;stroke-opacity:1;marker-start:none;marker-end:none"
       d="m 99.924198,209.90348 c -0.97501,-2.00834 -1.58773,-4.46518 -1.72652,-6.92292 -0.0508,-0.89885 0.0323,-0.85147 0.62465,0.35615 0.79739,1.62573 1.290962,3.54889 1.471072,5.73186 0.14608,1.77048 0.11697,1.83631 -0.369202,0.83491 z"
       id="path445" />
    <path
       style="fill:#cccccc;fill-opacity:1;stroke:#000000;stroke-width:0.2654;stroke-linejoin:round;stroke-dasharray:none;stroke-opacity:1;marker-start:none;marker-end:none"
       d=""
       id="path447"
       transform="matrix(0.26458333,0,0,0.26458333,0,177)" />
    <path
       style="fill:#cccccc;fill-opacity:1;stroke:#000000;stroke-width:0.0911962;stroke-linejoin:round;stroke-dasharray:none;stroke-opacity:1;marker-start:none;marker-end:none"
       d="m 131.41846,207.94556 c 0.025,-1.3717 0.0795,-2.10115 0.21164,-2.83485 0.22184,-1.23152 0.62545,-2.59834 1.00093,-3.38958 l 0.28708,-0.60498 0.007,1.37993 c 0.008,1.46752 -0.13476,2.83818 -0.42314,4.06403 -0.21241,0.90291 -0.64279,2.21962 -0.91584,2.80193 l -0.20184,0.43046 z"
       id="path449" />
    <path
       style="fill:#cccccc;fill-opacity:1;stroke:#000000;stroke-width:0.0911962;stroke-linejoin:round;stroke-dasharray:none;stroke-opacity:1;marker-start:none;marker-end:none"
       d="m 164.58173,221.29115 c 0.37584,-3.26859 1.72926,-5.74664 3.81553,-6.98607 0.71498,-0.42477 0.79793,-0.43232 0.73553,-0.067 -0.43197,2.52892 -1.07458,3.98172 -2.53351,5.72773 -0.43851,0.52479 -1.57485,1.55859 -1.91403,1.74131 -0.15206,0.0819 -0.15802,0.058 -0.10352,-0.41595 z"
       id="path451" />
    <path
       style="fill:#cccccc;fill-opacity:1;stroke:#000000;stroke-width:0.0161214;stroke-linejoin:round;stroke-dasharray:none;stroke-opacity:1;marker-start:none;marker-end:none"
       d="m 206.55785,257.19973 c 0.24344,-0.87058 0.65039,-1.75922 1.14942,-2.50997 1.23809,-1.86259 3.03796,-2.98913 5.3118,-3.32467 0.20976,-0.031 0.55078,-0.0685 0.55788,-0.0614 0.0185,0.0185 -0.18605,0.6012 -0.32778,0.9335 -0.85887,2.01371 -2.53324,3.58057 -4.86316,4.55086 -0.50108,0.20868 -1.079,0.39982 -1.57988,0.52254 -0.13782,0.0338 -0.26179,0.0646 -0.2755,0.0685 -0.0211,0.006 -0.0168,-0.0219 0.0272,-0.17941 z"
       id="path455" />
    <path
       style="fill:#cccccc;fill-opacity:1;stroke:#000000;stroke-width:0.0161214;stroke-linejoin:round;stroke-dasharray:none;stroke-opacity:1;marker-start:none;marker-end:none"
       d="m 223.82309,279.55256 c 0.0277,-0.0888 0.18889,-0.4396 0.30853,-0.67163 0.58832,-1.14103 1.39561,-2.12416 2.36144,-2.87581 0.63909,-0.49737 1.40316,-0.90687 2.20357,-1.18101 0.72562,-0.24852 1.50107,-0.38796 2.39937,-0.43143 0.36958,-0.0179 0.93393,-0.007 0.93393,0.0186 0,0.024 -0.2844,0.58442 -0.3917,0.77182 -0.94592,1.65207 -2.34756,2.87796 -4.14129,3.62201 -1.10102,0.45672 -2.22919,0.70347 -3.53544,0.77326 -0.14863,0.008 -0.14895,0.008 -0.13841,-0.0259 z"
       id="path457" />
    <path
       style="fill:#cccccc;fill-opacity:1;stroke:#000000;stroke-width:0.0644854;stroke-linejoin:round;stroke-dasharray:none;stroke-opacity:1;marker-start:none;marker-end:none"
       d="m 188.20034,237.89169 c 0.11902,-0.34457 0.37577,-0.95451 0.57056,-1.35542 1.20251,-2.47503 3.01452,-4.06943 5.23664,-4.60775 l 0.16323,-0.0395 -0.1214,0.44059 c -0.70504,2.55889 -2.67174,4.75241 -5.26843,5.87607 -0.88546,0.38316 -0.83148,0.41235 -0.5806,-0.31395 z"
       id="path471" />
    <path
       style="fill:none;fill-opacity:1;stroke:black;stroke-width:0.4213225;stroke-linecap:butt;stroke-linejoin:miter;stroke-dasharray:none;stroke-opacity:1;marker-start:none;marker-end:url(#marker-arrow-1.5923999999999998)"
       d="m 228.00649,277.02413 6.93931,10.34129"
       id="path577" />
    <text
       style="font-size:3.43618px;font-family:monospace;-inkscape-font-specification:'monospace, Normal';fill:#000000;fill-opacity:1;stroke:none;stroke-width:0.343618"
       xml:space="preserve"
       id="text596"
       y="283.3259"
       x="235.20526"><tspan
         sodipodi:role="line"
         id="tspan594"
         x="235.20526"
         y="283.3259"
         style="stroke-width:0.343618">$I$</tspan></text>
  </g>
</svg>
